<svg xmlns="http://www.w3.org/2000/svg" viewBox="0 0 64 64"><linearGradient id="Z~5Q0ntAWmFNgqTFWGgXNa" x1="42" x2="42" y1="39.5" y2="46.54" gradientUnits="userSpaceOnUse" spreadMethod="reflect"><stop offset="0" stop-color="#6dc7ff"></stop><stop offset="1" stop-color="#e6abff"></stop></linearGradient><path fill="url(#Z~5Q0ntAWmFNgqTFWGgXNa)" d="M42 40A3 3 0 1 0 42 46A3 3 0 1 0 42 40Z"></path><linearGradient id="Z~5Q0ntAWmFNgqTFWGgXNb" x1="11.5" x2="11.5" y1="32" y2="45.072" gradientUnits="userSpaceOnUse" spreadMethod="reflect"><stop offset="0" stop-color="#6dc7ff"></stop><stop offset="1" stop-color="#e6abff"></stop></linearGradient><path fill="url(#Z~5Q0ntAWmFNgqTFWGgXNb)" d="M7,32.803C7.882,32.292,8.907,32,10,32c3.314,0,6,2.686,6,6s-2.686,6-6,6"></path><linearGradient id="Z~5Q0ntAWmFNgqTFWGgXNc" x1="32" x2="32" y1="4.75" y2="59.778" gradientUnits="userSpaceOnUse" spreadMethod="reflect"><stop offset="0" stop-color="#1a6dff"></stop><stop offset="1" stop-color="#c822ff"></stop></linearGradient><path fill="url(#Z~5Q0ntAWmFNgqTFWGgXNc)" d="M32,6C17.664,6,6,17.663,6,32s11.664,26,26,26s26-11.663,26-26S46.336,6,32,6z M53.718,21.8 C52.939,24.276,50.605,26,48,26c-3.309,0-6-2.691-6-6c0-3.26,2.615-5.916,5.857-5.993C50.305,16.167,52.311,18.815,53.718,21.8z M24.702,9.138C24.897,9.735,25,10.358,25,11c0,3.309-2.691,6-6,6c-1.582,0-3.079-0.634-4.192-1.722 C17.523,12.487,20.907,10.353,24.702,9.138z M8.072,30.237C8.699,30.082,9.345,30,10,30c4.411,0,8,3.589,8,8 c0,3.584-2.326,6.662-5.714,7.664C9.587,41.783,8,37.074,8,32C8,31.406,8.029,30.82,8.072,30.237z M32,56 c-7.404,0-14.034-3.372-18.44-8.658C17.41,45.888,20,42.228,20,38c0-5.514-4.486-10-10-10c-0.569,0-1.132,0.048-1.686,0.142 c0.694-4.274,2.517-8.174,5.157-11.379C14.948,18.177,16.919,19,19,19c4.411,0,8-3.589,8-8c0-0.822-0.131-1.619-0.371-2.387 C28.357,8.217,30.153,8,32,8c5.104,0,9.836,1.606,13.73,4.333C42.422,13.314,40,16.378,40,20c0,4.411,3.589,8,8,8 c2.757,0,5.275-1.458,6.723-3.707C55.547,26.714,56,29.304,56,32C56,45.233,45.233,56,32,56z"></path><linearGradient id="Z~5Q0ntAWmFNgqTFWGgXNd" x1="42" x2="42" y1="4.75" y2="59.778" gradientUnits="userSpaceOnUse" spreadMethod="reflect"><stop offset="0" stop-color="#1a6dff"></stop><stop offset="1" stop-color="#c822ff"></stop></linearGradient><path fill="url(#Z~5Q0ntAWmFNgqTFWGgXNd)" d="M42,36c-3.86,0-7,3.141-7,7s3.14,7,7,7s7-3.141,7-7S45.86,36,42,36z M42,48 c-2.757,0-5-2.243-5-5s2.243-5,5-5s5,2.243,5,5S44.757,48,42,48z"></path><linearGradient id="Z~5Q0ntAWmFNgqTFWGgXNe" x1="31" x2="31" y1="4.75" y2="59.778" gradientUnits="userSpaceOnUse" spreadMethod="reflect"><stop offset="0" stop-color="#1a6dff"></stop><stop offset="1" stop-color="#c822ff"></stop></linearGradient><path fill="url(#Z~5Q0ntAWmFNgqTFWGgXNe)" d="M31,26c-2.206,0-4,1.794-4,4s1.794,4,4,4s4-1.794,4-4S33.206,26,31,26z M31,32 c-1.103,0-2-0.897-2-2s0.897-2,2-2s2,0.897,2,2S32.103,32,31,32z"></path><linearGradient id="Z~5Q0ntAWmFNgqTFWGgXNf" x1="27" x2="27" y1="4.75" y2="59.778" gradientUnits="userSpaceOnUse" spreadMethod="reflect"><stop offset="0" stop-color="#1a6dff"></stop><stop offset="1" stop-color="#c822ff"></stop></linearGradient><path fill="url(#Z~5Q0ntAWmFNgqTFWGgXNf)" d="M27,44c-2.206,0-4,1.794-4,4s1.794,4,4,4s4-1.794,4-4S29.206,44,27,44z M27,50 c-1.103,0-2-0.897-2-2s0.897-2,2-2s2,0.897,2,2S28.103,50,27,50z"></path><linearGradient id="Z~5Q0ntAWmFNgqTFWGgXNg" x1="48" x2="48" y1="15.375" y2="24.876" gradientUnits="userSpaceOnUse" spreadMethod="reflect"><stop offset="0" stop-color="#6dc7ff"></stop><stop offset="1" stop-color="#e6abff"></stop></linearGradient><path fill="url(#Z~5Q0ntAWmFNgqTFWGgXNg)" d="M48 16A4 4 0 1 0 48 24A4 4 0 1 0 48 16Z"></path></svg>